<svg 
 xmlns="http://www.w3.org/2000/svg"
 xmlns:xlink="http://www.w3.org/1999/xlink"
 width="16px" height="16px">
<path fill-rule="evenodd"  fill="rgb(126, 127, 132)"
 d="M15.945,4.791 L13.558,12.042 C13.487,12.246 13.299,12.382 13.089,12.382 L6.316,12.382 C6.093,12.382 5.897,12.229 5.837,12.008 L3.064,1.528 C2.923,1.025 2.715,1.025 2.647,1.025 L0.498,1.025 C0.223,1.025 -0.000,0.796 -0.000,0.512 C-0.000,0.229 0.223,-0.000 0.498,-0.000 L2.647,-0.000 C2.955,-0.000 3.706,0.121 4.023,1.247 L4.828,4.106 L6.116,4.106 L9.277,1.287 C9.669,0.884 10.305,0.884 10.696,1.287 L13.912,4.106 L15.476,4.106 C15.638,4.106 15.790,4.187 15.884,4.323 C15.977,4.459 16.000,4.634 15.945,4.791 ZM9.987,2.016 L7.603,4.106 L12.370,4.106 L9.987,2.016 ZM5.108,5.131 L6.694,11.357 L12.738,11.357 L14.768,5.131 L5.108,5.131 ZM7.235,13.420 C7.927,13.420 8.489,13.997 8.489,14.710 C8.489,15.422 7.927,16.000 7.235,16.000 C6.542,16.000 5.980,15.422 5.980,14.710 C5.980,13.997 6.542,13.420 7.235,13.420 ZM11.750,13.420 C12.443,13.420 13.004,13.997 13.004,14.710 C13.004,15.422 12.443,16.000 11.750,16.000 C11.057,16.000 10.496,15.422 10.496,14.710 C10.496,13.997 11.057,13.420 11.750,13.420 Z"/>
</svg>