<svg 
 xmlns="http://www.w3.org/2000/svg"
 xmlns:xlink="http://www.w3.org/1999/xlink"
 width="16px" height="11px">
<path fill-rule="evenodd"  fill="#fff"
 d="M15.942,9.250 C15.942,10.078 15.523,11.000 14.701,11.000 L1.795,11.000 C0.973,11.000 0.058,10.078 0.058,9.250 L0.058,1.250 C0.058,1.209 0.085,1.181 0.089,1.142 C0.059,0.994 0.074,0.842 0.179,0.719 C0.209,0.685 0.246,0.664 0.281,0.640 C0.598,0.222 1.213,-0.000 1.795,-0.000 L14.701,-0.000 C15.414,-0.000 15.804,0.336 15.900,0.960 C15.911,1.016 15.931,1.062 15.923,1.118 C15.926,1.165 15.942,1.200 15.942,1.250 L15.942,9.250 ZM1.795,10.000 L14.701,10.000 C14.975,10.000 14.949,9.526 14.949,9.250 L14.949,2.087 L8.325,7.425 C8.232,7.506 8.116,7.547 8.000,7.547 C7.884,7.547 7.768,7.506 7.675,7.425 L1.051,2.086 L1.051,9.250 C1.051,9.526 1.522,10.000 1.795,10.000 ZM14.453,1.000 L1.795,1.000 C1.658,1.000 1.472,0.994 1.319,1.022 L8.000,6.385 L14.708,1.000 C14.705,1.000 14.704,1.000 14.701,1.000 L14.453,1.000 Z"/>
</svg>