<svg xmlns="http://www.w3.org/2000/svg" width="16" height="16"><path fill-rule="evenodd" fill="#7E7F84" d="M15.781.568l-.01 3.604c-.005.202-.169.322-.368.327h-.253c-.199.005-.357-.171-.353-.372l.014-2.42-4.237 4.268a.488.488 0 01-.697 0 .505.505 0 010-.706l4.222-4.253-2.328-.007a.405.405 0 01-.413-.372V.381a.384.384 0 01.368-.374l3.533.016a.03.03 0 01.01-.002l.18-.004a.336.336 0 01.252.102c.065.065.088.155.086.257l-.019.182c0 .004.013.006.013.01zM11.742 9.77c.188 0 .359.043.5.13.323.201 2.962 1.979 3.203 2.151.396.282.555.975.12 1.606C15.549 13.68 13.89 16 12.946 16h-.022c-2.696-.087-5.851-2.733-8.025-4.937C2.725 8.859.116 5.66.031 2.938 0 1.969 2.318.265 2.341.249 2.581.08 2.858 0 3.118 0c.331 0 .635.129.805.367.18.253 1.928 2.938 2.119 3.246.205.325.177.808-.076 1.292-.132.257-.57 1.036-.784 1.418.234.338.836 1.133 2.055 2.369 1.227 1.245 2.006 1.85 2.338 2.086a79.84 79.84 0 011.399-.798c.261-.139.528-.21.768-.21zM9.52 11.959l-.512-.364c-.379-.27-1.203-.915-2.468-2.197-1.259-1.277-1.896-2.115-2.164-2.501l-.36-.519.31-.55c.398-.708.678-1.213.768-1.387a.732.732 0 00.099-.322 284.24 284.24 0 00-2.034-3.117.218.218 0 00-.041-.004.384.384 0 00-.215.071c-.857.628-1.761 1.533-1.886 1.886.086 1.867 1.709 4.492 4.579 7.402 2.869 2.909 5.462 4.555 7.309 4.643.347-.131 1.234-1.048 1.859-1.925.075-.109.081-.195.074-.235a235.493 235.493 0 00-3.083-2.071h-.013a.7.7 0 00-.31.095c-.207.11-.843.476-1.369.78l-.543.315z"/></svg>