<svg 
 xmlns="http://www.w3.org/2000/svg"
 xmlns:xlink="http://www.w3.org/1999/xlink"
 width="14px" height="14px">
<path fill-rule="evenodd"  fill="rgb(126, 127, 132)"
 d="M13.830,13.829 C13.660,13.999 13.385,13.999 13.215,13.829 L8.982,9.554 C8.028,10.386 6.797,10.907 5.434,10.907 C2.433,10.907 -0.000,8.465 -0.000,5.453 C-0.000,2.441 2.433,-0.001 5.434,-0.001 C8.435,-0.001 10.868,2.441 10.868,5.453 C10.868,6.782 10.376,7.983 9.589,8.929 L13.830,13.212 C14.000,13.382 14.000,13.659 13.830,13.829 ZM10.006,5.453 C10.006,2.919 7.959,0.865 5.434,0.865 C2.909,0.865 0.862,2.919 0.862,5.453 C0.862,7.987 2.909,10.042 5.434,10.042 C7.959,10.042 10.006,7.987 10.006,5.453 Z"/>
</svg>