<?xml version="1.0" encoding="utf-8"?>
<!-- Generator: Adobe Illustrator 19.0.0, SVG Export Plug-In . SVG Version: 6.00 Build 0)  -->
<svg xmlns="http://www.w3.org/2000/svg" xmlns:xlink="http://www.w3.org/1999/xlink" version="1.1" id="Layer_1" x="0px" y="0px" viewBox="0 2 98 98" style="enable-background:new 0 2 98 98;" xml:space="preserve" width="512" height="512">
<style type="text/css">
	.st0{fill:url(#SVGID_1_);}
	.st1{fill:url(#SVGID_2_);}
	.st2{fill:url(#SVGID_3_);}
</style>
<g>
	
		<linearGradient id="SVGID_1_" gradientUnits="userSpaceOnUse" x1="39.5" y1="90.5" x2="39.5" y2="8.7412" gradientTransform="matrix(1 0 0 -1 0 104)">
		<stop offset="0" style="stop-color:#00EFD1"/>
		<stop offset="1" style="stop-color:#00ACEA"/>
	</linearGradient>
	<path class="st0" d="M39.5,72.6c-5.5,0-10,4.5-10,10s4.5,10,10,10s10-4.5,10-10S45,72.6,39.5,72.6z M39.5,86.6c-2.2,0-4-1.8-4-4   s1.8-4,4-4s4,1.8,4,4S41.7,86.6,39.5,86.6z"/>
	
		<linearGradient id="SVGID_2_" gradientUnits="userSpaceOnUse" x1="69.1" y1="90.5" x2="69.1" y2="8.7412" gradientTransform="matrix(1 0 0 -1 0 104)">
		<stop offset="0" style="stop-color:#00EFD1"/>
		<stop offset="1" style="stop-color:#00ACEA"/>
	</linearGradient>
	<path class="st1" d="M69.1,72.6c-5.5,0-10,4.5-10,10s4.5,10,10,10s10-4.5,10-10S74.6,72.6,69.1,72.6z M69.1,86.6c-2.2,0-4-1.8-4-4   s1.8-4,4-4s4,1.8,4,4S71.3,86.6,69.1,86.6z"/>
	
		<linearGradient id="SVGID_3_" gradientUnits="userSpaceOnUse" x1="48.9442" y1="90.5" x2="48.9442" y2="8.7412" gradientTransform="matrix(1 0 0 -1 0 104)">
		<stop offset="0" style="stop-color:#00EFD1"/>
		<stop offset="1" style="stop-color:#00ACEA"/>
	</linearGradient>
	<path class="st2" d="M86.4,32.9c-0.6-0.7-1.4-1.1-2.3-1.1H31.6L28.8,18c-0.2-1.2-1.2-2.1-2.4-2.4l-12-2.2c-1.6-0.3-3.2,0.8-3.5,2.4   s0.8,3.2,2.4,3.5l10,1.8l8.8,44.5C32.4,67,33.6,68,35,68h42c1.4,0,2.6-1,2.9-2.3l7-30.3C87.2,34.6,87,33.6,86.4,32.9z M74.7,62.1   H37.6l-4.8-24.3h47.6L74.7,62.1z"/>
</g>
</svg>
